<svg xmlns="http://www.w3.org/2000/svg" viewBox="0 0 500 500"><g id="freepik--background-complete--inject-2"><rect x="416.78" y="398.49" width="33.12" height="0.25" style="fill:#ebebeb"></rect><rect x="322.53" y="401.21" width="8.69" height="0.25" style="fill:#ebebeb"></rect><rect x="396.59" y="389.21" width="19.19" height="0.25" style="fill:#ebebeb"></rect><rect x="52.46" y="390.89" width="43.19" height="0.25" style="fill:#ebebeb"></rect><rect x="104.56" y="390.89" width="6.33" height="0.25" style="fill:#ebebeb"></rect><rect x="131.47" y="395.11" width="93.68" height="0.25" style="fill:#ebebeb"></rect><path d="M237,337.8H43.92a5.71,5.71,0,0,1-5.71-5.71V60.66A5.71,5.71,0,0,1,43.92,55H237a5.71,5.71,0,0,1,5.71,5.71V332.09A5.71,5.71,0,0,1,237,337.8ZM43.92,55.2a5.47,5.47,0,0,0-5.46,5.46V332.09a5.47,5.47,0,0,0,5.46,5.46H237a5.47,5.47,0,0,0,5.46-5.46V60.66A5.47,5.47,0,0,0,237,55.2Z" style="fill:#ebebeb"></path><path d="M453.31,337.8H260.21a5.72,5.72,0,0,1-5.71-5.71V60.66A5.72,5.72,0,0,1,260.21,55h193.1A5.71,5.71,0,0,1,459,60.66V332.09A5.71,5.71,0,0,1,453.31,337.8ZM260.21,55.2a5.47,5.47,0,0,0-5.46,5.46V332.09a5.47,5.47,0,0,0,5.46,5.46h193.1a5.47,5.47,0,0,0,5.46-5.46V60.66a5.47,5.47,0,0,0-5.46-5.46Z" style="fill:#ebebeb"></path><rect y="382.4" width="500" height="0.25" style="fill:#ebebeb"></rect><rect x="278.03" y="289.3" width="132.3" height="45.67" style="fill:#ebebeb"></rect><rect x="278.03" y="334.97" width="132.3" height="45.67" style="fill:#ebebeb"></rect><rect x="141.12" y="289.3" width="132.3" height="45.67" style="fill:#ebebeb"></rect><rect x="141.12" y="334.97" width="132.3" height="45.67" style="fill:#ebebeb"></rect><polygon points="191.39 334.97 207.85 289.3 182.52 289.3 166.06 334.97 191.39 334.97" style="fill:#f0f0f0"></polygon><polygon points="220.11 289.3 214.55 289.3 198.09 334.97 203.65 334.97 220.11 289.3" style="fill:#f0f0f0"></polygon><polygon points="174.93 380.63 191.39 334.97 166.06 334.97 149.6 380.63 174.93 380.63" style="fill:#f0f0f0"></polygon><polygon points="203.65 334.97 198.09 334.97 181.63 380.63 187.19 380.63 203.65 334.97" style="fill:#f0f0f0"></polygon><polygon points="380.61 334.97 397.07 289.3 371.74 289.3 355.27 334.97 380.61 334.97" style="fill:#f0f0f0"></polygon><polygon points="409.33 289.3 403.76 289.3 387.3 334.97 392.87 334.97 409.33 289.3" style="fill:#f0f0f0"></polygon><polygon points="364.15 380.63 380.61 334.97 355.27 334.97 338.81 380.63 364.15 380.63" style="fill:#f0f0f0"></polygon><polygon points="392.87 334.97 387.3 334.97 370.84 380.63 376.41 380.63 392.87 334.97" style="fill:#f0f0f0"></polygon><rect x="204.96" y="227.86" width="4.62" height="132.3" transform="translate(501.28 86.75) rotate(90)" style="fill:#e0e0e0"></rect><rect x="204.96" y="273.17" width="4.62" height="132.3" transform="translate(546.59 132.06) rotate(90)" style="fill:#e0e0e0"></rect><path d="M210.65,318a2,2,0,0,0,0-4h-6.77a2,2,0,0,0,0,4Z" style="fill:#e0e0e0"></path><path d="M210.65,317.28a2,2,0,0,0,0-4h-6.77a2,2,0,0,0,0,4Z" style="fill:#f5f5f5"></path><path d="M210.65,360.13a2,2,0,1,0,0-4h-6.77a2,2,0,1,0,0,4Z" style="fill:#e0e0e0"></path><path d="M210.65,359.43a2,2,0,1,0,0-4h-6.77a2,2,0,1,0,0,4Z" style="fill:#f5f5f5"></path><path d="M138.81,287.25v95.38H275.72V287.25ZM271.1,378H143.43V337.38H271.1Zm0-45.25H143.43V292.13H271.1Z" style="fill:#f5f5f5"></path><rect x="341.87" y="227.86" width="4.62" height="132.3" transform="translate(638.2 -50.17) rotate(90)" style="fill:#e0e0e0"></rect><rect x="341.87" y="273.17" width="4.62" height="132.3" transform="translate(683.51 -4.86) rotate(90)" style="fill:#e0e0e0"></rect><path d="M347.57,318a2,2,0,0,0,0-4H340.8a2,2,0,1,0,0,4Z" style="fill:#e0e0e0"></path><path d="M347.57,317.28a2,2,0,0,0,0-4H340.8a2,2,0,1,0,0,4Z" style="fill:#f5f5f5"></path><path d="M347.57,360.13a2,2,0,1,0,0-4H340.8a2,2,0,1,0,0,4Z" style="fill:#e0e0e0"></path><path d="M347.57,359.43a2,2,0,1,0,0-4H340.8a2,2,0,1,0,0,4Z" style="fill:#f5f5f5"></path><path d="M275.72,287.25v95.38H412.64V287.25ZM408,378H280.34V337.38H408Zm0-45.25H280.34V292.13H408Z" style="fill:#f5f5f5"></path><polygon points="391.56 250.96 405.47 264.87 405.47 287.27 377.65 287.27 377.65 264.87 391.56 250.96" style="fill:#f0f0f0"></polygon><polygon points="406.25 266.85 391.56 252.16 376.87 266.85 374.75 264.73 391.56 247.92 408.38 264.73 406.25 266.85" style="fill:#e0e0e0"></polygon><circle cx="391.56" cy="272.87" r="10.87" transform="translate(36.03 591.26) rotate(-76.72)" style="fill:#fafafa"></circle><path d="M391.56,263.72a10.87,10.87,0,0,1,10.83,10c0-.29,0-.57,0-.86a10.87,10.87,0,0,0-21.74,0,8.27,8.27,0,0,0,.05.86A10.86,10.86,0,0,1,391.56,263.72Z" style="fill:#e0e0e0"></path><path d="M398.43,272.86h-5.72v-5.71a1.15,1.15,0,0,0-2.3,0V274a1.15,1.15,0,0,0,1.15,1.15h6.87a1.15,1.15,0,0,0,0-2.3Z" style="fill:#e0e0e0"></path><path d="M398.43,274a1.15,1.15,0,0,0,0-2.3h-6.87a1.15,1.15,0,0,0,0,2.3Z" style="fill:#f5f5f5"></path><path d="M392.71,266a1.15,1.15,0,0,0-2.3,0v6.86a1.15,1.15,0,0,0,2.3,0Z" style="fill:#ebebeb"></path><rect x="232.26" y="260.02" width="33.41" height="27.77" style="fill:#e0e0e0"></rect><rect x="234.46" y="261.85" width="29.01" height="24.11" style="fill:#fafafa"></rect><polygon points="260.07 287.79 262.65 263.24 283.05 263.24 280.47 287.79 260.07 287.79" style="fill:#f0f0f0"></polygon><polygon points="263.62 284 265.4 267.04 279.5 267.04 277.71 284 263.62 284" style="fill:#e0e0e0"></polygon><polygon points="240.74 287.79 238.56 267.04 221.31 267.04 223.5 287.79 240.74 287.79" style="fill:#e6e6e6"></polygon><polygon points="237.74 284.58 236.23 270.24 224.32 270.24 225.82 284.58 237.74 284.58" style="fill:#f5f5f5"></polygon><path d="M92.45,273h27.41a0,0,0,0,1,0,0V373.93a8.7,8.7,0,0,1-8.7,8.7h-10a8.7,8.7,0,0,1-8.7-8.7V273A0,0,0,0,1,92.45,273Z" style="fill:#f5f5f5"></path><rect x="92.45" y="296.55" width="27.41" height="8.18" style="fill:#e6e6e6"></rect><rect x="92.45" y="310.25" width="27.41" height="4.09" style="fill:#e0e0e0"></rect><rect x="92.45" y="325.76" width="27.41" height="4.09" style="fill:#ebebeb"></rect><path d="M104.89,270.5h-1.37V246.21a7,7,0,1,1,14,0h-1.36a5.65,5.65,0,0,0-11.29,0Z" style="fill:#f0f0f0"></path><path d="M118.23,246.21c-.37-7.67-10.79-10.72-14.53-3.54-1.26,2.42-.86,5.45-.86,8.09v8.79a1.37,1.37,0,0,0,2.73,0v-12c0-2.4.41-4.66,2.8-5.85,3.34-1.67,6.95.95,7.12,4.46.08,1.76,2.82,1.77,2.74,0Z" style="fill:#e0e0e0"></path><path d="M96.6,267a2.38,2.38,0,1,0,4.76,0,2.38,2.38,0,0,0,4.76,0,2.38,2.38,0,0,0,4.76,0v6H96.6Z" style="fill:#e0e0e0"></path><rect x="96.26" y="265.87" width="0.68" height="1.45" rx="0.28" style="fill:#f0f0f0"></rect><rect x="100.94" y="265.87" width="0.68" height="1.45" rx="0.28" style="fill:#f0f0f0"></rect><rect x="105.77" y="265.87" width="0.68" height="1.45" rx="0.28" style="fill:#f0f0f0"></rect><rect x="110.53" y="265.87" width="0.68" height="1.45" rx="0.28" style="fill:#f0f0f0"></rect></g><g id="freepik--Shadow--inject-2"><ellipse id="freepik--path--inject-2" cx="245.18" cy="412.39" rx="193.89" ry="11.32" style="fill:#f5f5f5"></ellipse></g><g id="freepik--character-2--inject-2"><path d="M325.79,191.1c-2-1.51-3.47-9.42-3.47-9.42l-7.38,4.23s0,4.67-1.06,5.68a2.8,2.8,0,0,1-3,.64l-1.63,5.52s.37,4.08,1.22,5.53,3,1.26,3.37,1.45,5.66.49,6.05.52c1.61.11,3.26.2,3.26.2l1.07-3.54a40.73,40.73,0,0,1,4.69-3.7l.51-6.72C328.16,191.31,326.72,191.8,325.79,191.1Z" style="fill:#dd8c6a"></path><path d="M314.94,185.91a20.47,20.47,0,0,1-.57,4.73c6.37-.38,7.64-6.27,7.89-8.93Z" style="opacity:0.1"></path><path d="M324.12,171.24c.45,6.88.78,9.77-2.22,13.71-4.52,5.93-13.07,5-15.56-1.64-2.24-5.95-2.6-16.24,3.75-19.76a9.39,9.39,0,0,1,14,7.69Z" style="fill:#dd8c6a"></path><path d="M313.32,174.31c.06.55-.17,1-.53,1.08s-.7-.37-.78-.91.17-1,.53-1.09S313.22,173.79,313.32,174.31Z" style="fill:#263238"></path><path d="M307.12,175.11c.06.55-.17,1-.53,1.08s-.71-.37-.78-.92.17-1,.53-1.07S307,174.56,307.12,175.11Z" style="fill:#263238"></path><path d="M306.5,174.21l-1.37-.22S305.94,174.94,306.5,174.21Z" style="fill:#263238"></path><path d="M309.16,175.86a15.29,15.29,0,0,1-1.52,3.75,2.4,2.4,0,0,0,2,.12Z" style="fill:#c13b37"></path><path d="M312.91,181.5a4.47,4.47,0,0,1-.81.16.15.15,0,0,1-.18-.13h0a.17.17,0,0,1,.15-.18,4.42,4.42,0,0,0,3.33-2.15.16.16,0,0,1,.21-.08.16.16,0,0,1,.08.22A4.5,4.5,0,0,1,312.91,181.5Z" style="fill:#263238"></path><path d="M315.66,172.74a.33.33,0,0,1-.37-.12,3.78,3.78,0,0,0-2.79-1.3.32.32,0,0,1-.32-.33.32.32,0,0,1,.32-.32h0a4.43,4.43,0,0,1,3.33,1.59.33.33,0,0,1-.09.44h0A.12.12,0,0,1,315.66,172.74Z" style="fill:#263238"></path><path d="M304.89,172.48a.35.35,0,0,1-.32-.08.33.33,0,0,1,0-.46,3.18,3.18,0,0,1,2.81-1.05.3.3,0,0,1,.26.35v0a.31.31,0,0,1-.37.25h0a2.6,2.6,0,0,0-2.19.86A.32.32,0,0,1,304.89,172.48Z" style="fill:#263238"></path><path d="M312.72,173.46l-1.37-.22S312.14,174.15,312.72,173.46Z" style="fill:#263238"></path><path d="M308.23,164.84s-1.16,1.64,1.76,1.51,9.24,0,9.24,0l1.69,1.34s.92,7.27,3.08,8.39l2.16.54s5.78,7.38,7-1.52c0,0,10.28-1.08,4.65-7.61,0,0,7-6.33-.34-9.59,0,0,2.62-10.42-6.8-6.16,0,0-.72-9.33-6.27-3.26,0,0-6-9.15-9.49,1.08,0,0-6.81-4.43-6.71,3.9,0,0-7,.18-3.44,5.43C304.79,158.9,301.15,163.38,308.23,164.84Z" style="fill:#263238"></path><path d="M309.23,162.7a9.33,9.33,0,0,0-4.55,1.83c-.37.29-2.63,2.63-1.55,3.14.85.41,4.19-3.69.08-3.1-.19,0-.11.33.09.3.49-.07,1.51-.26,1.66.42.07.33-.24.76-.42,1-.3.42-1.5,1.71-1.2.49.57-2.29,3.79-3.51,5.89-3.78.2,0,.2-.33,0-.31Z" style="fill:#263238"></path><path d="M327.11,175.25a3.25,3.25,0,0,0,1.16,4.85c.18.09.34-.18.16-.27a2.93,2.93,0,0,1-1.05-4.42.16.16,0,0,0-.27-.16Z" style="fill:#263238"></path><path d="M306.7,166.79s11.86-8.08,18.75,9.13l1.26-.67s-5-16-19-10.83Z" style="fill:#FF7F00"></path><path d="M326.65,176.25a5,5,0,0,1-2.14,3.11c-1.46.93-2.7-.26-2.72-1.92,0-1.48.75-3.76,2.42-4.05a2.22,2.22,0,0,1,2.51,1.89A2.26,2.26,0,0,1,326.65,176.25Z" style="fill:#dd8c6a"></path><path d="M326.48,179.1a1.25,1.25,0,1,1-1.25-1.24A1.25,1.25,0,0,1,326.48,179.1Z" style="fill:#FF7F00"></path><path d="M297.52,305.25,294,332.18l0,.38-2.21,77.83h9.93s7.82-50.17,6.22-77.34l6.43-27.8Z" style="fill:#dd8c6a"></path><path d="M296.17,315.45a38.73,38.73,0,0,0,15.14,2.79l3-13H297.52Z" style="opacity:0.1"></path><path d="M289,409.88a3.8,3.8,0,0,1-2.6-.8.8.8,0,0,1,.06-.91,1.11,1.11,0,0,1,.69-.47c1.51-.34,4.54,1.57,4.67,1.65a.21.21,0,0,1,.1.23.23.23,0,0,1-.18.17A16.77,16.77,0,0,1,289,409.88Zm-1.34-1.8a1.39,1.39,0,0,0-.41,0,.61.61,0,0,0-.43.28c-.17.26-.12.39-.06.46.39.6,2.64.71,4.31.58A9.78,9.78,0,0,0,287.62,408.08Z" style="fill:#FF7F00"></path><path d="M291.67,409.74a.14.14,0,0,1-.09,0c-1.05-.52-3.11-2.55-2.87-3.55,0-.24.22-.52.81-.56a1.59,1.59,0,0,1,1.16.42c1.1,1,1.23,3.4,1.23,3.51a.19.19,0,0,1-.1.19A.17.17,0,0,1,291.67,409.74Zm-2-3.71h-.12c-.38,0-.41.16-.43.22-.08.6,1.26,2.17,2.34,2.88a5.06,5.06,0,0,0-1.07-2.79,1.12,1.12,0,0,0-.72-.3Z" style="fill:#FF7F00"></path><path d="M292.67,408.54l9.74.42a.79.79,0,0,1,.73.65l1.42,8a1.31,1.31,0,0,1-1.05,1.52,1.27,1.27,0,0,1-.28,0c-3.5-.21-6.62-.54-11-.73-5.16-.22-3.88.45-9.95.27-3.65-.11-4.14-4.29-2.58-4.43,7.13-.58,8-2.69,10.81-5.11A3.11,3.11,0,0,1,292.67,408.54Z" style="fill:#263238"></path><path d="M324.57,307.07l1,25.26a4.9,4.9,0,0,0,.44,1.39l35.65,67.44,9-2.54s-17.49-46.91-31.88-70.53l6-25.82Z" style="fill:#dd8c6a"></path><path d="M358.24,402.93a3.84,3.84,0,0,1-2.69.37.81.81,0,0,1-.34-.86,1.13,1.13,0,0,1,.43-.71c1.22-1,4.78-.49,4.94-.47a.2.2,0,0,1,.18.16.23.23,0,0,1-.1.23A17,17,0,0,1,358.24,402.93Zm-2-1.07a1.33,1.33,0,0,0-.35.2.56.56,0,0,0-.27.44c-.05.3.05.4.13.44.61.38,2.7-.47,4.15-1.29A9.82,9.82,0,0,0,356.26,401.86Z" style="fill:#FF7F00"></path><path d="M360.63,401.66a.08.08,0,0,1-.08,0c-1.17,0-3.89-1-4.1-2-.07-.23,0-.57.5-.85a1.6,1.6,0,0,1,1.23-.11c1.4.43,2.54,2.56,2.6,2.66a.2.2,0,0,1,0,.21A.21.21,0,0,1,360.63,401.66Zm-3.4-2.51-.11,0c-.34.17-.31.32-.3.38.18.58,2.06,1.44,3.33,1.62a4.92,4.92,0,0,0-2.14-2.07,1.05,1.05,0,0,0-.78,0Z" style="fill:#FF7F00"></path><path d="M361,400.14l9-3.72a.78.78,0,0,1,.94.27l4.66,6.66a1.3,1.3,0,0,1-.31,1.82,1,1,0,0,1-.24.14c-3.27,1.28-6.23,2.3-10.27,4-4.77,2-3.33,2.05-8.91,4.45-3.36,1.44-5.56-2.15-4.21-2.93,6.22-3.54,6.08-5.8,7.64-9.19A3.2,3.2,0,0,1,361,400.14Z" style="fill:#263238"></path><path d="M344.7,302.27l-20.13,4.8.4,10.44a88.66,88.66,0,0,0,16.65-1.95Z" style="opacity:0.1"></path><path d="M308.3,233.8s-2.07-.07-4.5,16.67c0,0-10.86,35.49-11.95,61.3,0,0,27.26,5.43,64.3-5.16,0,0-2.31-44.81-8.31-54.74,0,0-6-14.35-12.24-21.78Z" style="fill:#FF7F00"></path><path d="M308.3,233.8s-2.07-.07-4.5,16.67c0,0-10.86,35.49-11.95,61.3,0,0,27.26,5.43,64.3-5.16,0,0-2.31-44.81-8.31-54.74,0,0-6-14.35-12.24-21.78Z" style="fill:#fff;opacity:0.5"></path><polygon points="319.91 307.69 323.13 276.99 324.55 307.69 319.91 307.69" style="opacity:0.2"></polygon><path d="M328.31,190.54c-2.44,2.53-9.38,2.5-9.38,2.5l-2.66,8.15.35-8a7.38,7.38,0,0,1-4.77-2,96.93,96.93,0,0,0-11.42,2.44,1.46,1.46,0,0,0-1.06,1.47C300,210.55,303,215.7,303,215.7l3.17,21c13.61,4.89,34.5,0,34.5,0l.19-41.65a1.58,1.58,0,0,0-.89-1.46A33.7,33.7,0,0,0,328.31,190.54Z" style="fill:#FF7F00"></path><path d="M340.82,200l-3.05-2.62s-2.63,10.59,3,20.19Z" style="opacity:0.2"></path><path d="M337.68,193.87s5-1.21,12.39,8,7.35,10.82,7.35,10.82l1.27-2.84s7.21,2,6.78,6.16c0,0-1.51,9-8.22,8.51s-17.35-12.13-19.57-18.48C335.73,200.52,337.68,193.87,337.68,193.87Z" style="fill:#FF7F00"></path><path d="M359.41,212.06l4-10.32a14.08,14.08,0,0,1,0-6c.72-3.08,2-2.35,2.08-3.8s1.72-3.44,4.08-1.09,3.44,5.81,2,7.07a36,36,0,0,0-3.91,4.88l-3.7,13.23S360.14,216.59,359.41,212.06Z" style="fill:#dd8c6a"></path><path d="M354.16,207.28a98.83,98.83,0,0,1,3,9.85,23.59,23.59,0,0,1,.21-4.63C357.2,212,356.57,210.64,354.16,207.28Z" style="opacity:0.2"></path><path d="M302.25,194s-5.1-2.44-18.28,14.4l-3.26-2.85s-6.65,2.72-7.06,8c0,0,3.26,7.87,9.92,7.33s20.23-14.81,20.23-14.81Z" style="fill:#FF7F00"></path><path d="M279.88,207.61l-14.65-13.74s-3.56-7.92-6.26-9-5.42-.38-5.7,1.78,1.77,3.8,2.31,5.16a7.34,7.34,0,0,0,5.44,5l1.76.67,11.67,15.41A11.4,11.4,0,0,0,279.88,207.61Z" style="fill:#dd8c6a"></path><path d="M264.21,197.9a.93.93,0,1,1-1.29-.2A.93.93,0,0,1,264.21,197.9Z" style="fill:#FF7F00"></path><path d="M265.46,196.59a.93.93,0,0,1-1.5,1.09.93.93,0,1,1,1.5-1.09Z" style="fill:#FF7F00"></path><path d="M266.72,195.32a.93.93,0,1,1-1.5,1.09.93.93,0,0,1,.2-1.29A.94.94,0,0,1,266.72,195.32Z" style="fill:#FF7F00"></path><path d="M267.74,193.9a.92.92,0,0,1-.21,1.29.94.94,0,0,1-1.3-.2.93.93,0,0,1,1.51-1.09Z" style="fill:#FF7F00"></path></g><g id="freepik--character-1--inject-2"><polygon points="212.9 399.55 213.73 407.47 221.47 407.58 221.2 398.86 212.9 399.55" style="fill:#fab27b"></polygon><polygon points="221.32 402.56 221.25 400.47 213.11 401.49 213.36 403.91 221.32 402.56" style="opacity:0.2"></polygon><path d="M223.18,408a.23.23,0,0,1-.18-.17.2.2,0,0,1,.09-.22c.14-.09,3.17-2,4.68-1.66a1.07,1.07,0,0,1,.68.47.78.78,0,0,1,.06.92c-.34.49-1.48.74-2.59.79A15.68,15.68,0,0,1,223.18,408Zm.67-.32c1.67.14,3.92,0,4.31-.58.05-.07.1-.2-.06-.46a.61.61,0,0,0-.43-.27,1.43,1.43,0,0,0-.41,0A9.78,9.78,0,0,0,223.85,407.67Z" style="fill:#FF7F00"></path><path d="M223.06,408a.23.23,0,0,1-.1-.19c0-.11.14-2.53,1.24-3.51a1.54,1.54,0,0,1,1.16-.41c.58,0,.78.32.81.56.23,1-1.83,3-2.87,3.54a.1.1,0,0,1-.09,0A.2.2,0,0,1,223.06,408Zm2.17-3.71a1.16,1.16,0,0,0-.72.3,5,5,0,0,0-1.06,2.79c1.08-.7,2.42-2.28,2.34-2.88,0-.05,0-.21-.44-.22Z" style="fill:#FF7F00"></path><path d="M222.21,406.78l-9.74.43a.78.78,0,0,0-.74.64l-1.41,8a1.31,1.31,0,0,0,1.05,1.52.82.82,0,0,0,.27,0c3.51-.21,6.63-.54,11-.73,5.16-.22,3.87.45,9.94.27,3.66-.11,4.14-4.29,2.59-4.43-7.13-.58-8-2.69-10.81-5.11A3.13,3.13,0,0,0,222.21,406.78Z" style="fill:#263238"></path><path d="M205.7,242.59s11.59,48.18,14.85,72.81,4.35,84.4,4.35,84.4H206.78l-8.69-82.95-16.66-54.34,3.26-19.92,11.59-4Z" style="fill:#FF7F00"></path><path d="M206,397.62h19.09a4.26,4.26,0,0,1,0,4H206.7S205.82,401.17,206,397.62Z" style="fill:#FF7F00"></path><path d="M206,397.62h19.09a4.26,4.26,0,0,1,0,4H206.7S205.82,401.17,206,397.62Z" style="opacity:0.5"></path><path d="M193.53,302c2.44-14.3,1.42-35.66,1.42-35.66l-7,17.61Z" style="opacity:0.30000000000000004"></path><polygon points="153.15 396.46 151.94 404.33 159.39 406.4 161.35 397.9 153.15 396.46" style="fill:#fab27b"></polygon><polygon points="160.52 401.51 160.99 399.47 152.85 398.39 152.49 400.79 160.52 401.51" style="opacity:0.2"></polygon><path d="M160.94,407.23a.21.21,0,0,1-.13-.2.23.23,0,0,1,.15-.2c.15-.05,3.57-1.13,4.94-.41a1.07,1.07,0,0,1,.55.63.78.78,0,0,1-.18.9c-.46.39-1.62.34-2.71.11A16.26,16.26,0,0,1,160.94,407.23Zm.73-.13c1.58.55,3.79,1,4.32.53.07-.05.15-.17,0-.46a.55.55,0,0,0-.34-.37,1.34,1.34,0,0,0-.38-.14A9.8,9.8,0,0,0,161.67,407.1Z" style="fill:#FF7F00"></path><path d="M160.84,407.2a.21.21,0,0,1-.06-.21c0-.11.78-2.41,2.09-3.08a1.55,1.55,0,0,1,1.23-.11c.56.18.67.51.64.75,0,1-2.53,2.46-3.68,2.7H161A.23.23,0,0,1,160.84,407.2Zm3-3a1.11,1.11,0,0,0-.78.11,5,5,0,0,0-1.73,2.42c1.22-.4,2.91-1.58,3-2.19,0-.05,0-.21-.36-.32l-.12,0Z" style="fill:#FF7F00"></path><path d="M160.32,405.82l-9.53-2.06a.78.78,0,0,0-.88.43l-3.4,7.38a1.3,1.3,0,0,0,.63,1.74,1.14,1.14,0,0,0,.26.09c3.44.68,6.54,1.15,10.81,2.09,5,1.09,3.64,1.42,9.56,2.78,3.56.83,5.09-3.1,3.62-3.62-6.75-2.38-7-4.63-9.15-7.69A3.17,3.17,0,0,0,160.32,405.82Z" style="fill:#263238"></path><path d="M203.52,238.6,183.24,323,167.3,399.8,147.38,398l17.13-78.79s-5-52.16,7.5-79.51l22.64-3.44Z" style="fill:#FF7F00"></path><path d="M146.4,398.36a6.79,6.79,0,0,1,1-3.94l21.37,2s.41,2.78-1,4.27Z" style="fill:#FF7F00"></path><path d="M146.4,398.36a6.79,6.79,0,0,1,1-3.94l21.37,2s.41,2.78-1,4.27Z" style="opacity:0.5"></path><path d="M173.82,189.52s14.49-4.71,41.3,0c0,0,.36,22.28-9.6,43.29l1.26,13.58s-21.55,7.79-35.86-4.89c0,0,5.51-8.93,6.16-12.31C179,219.42,173.82,189.52,173.82,189.52Z" style="fill:#FF7F00"></path><path d="M173.82,189.52s14.49-4.71,41.3,0c0,0,.36,22.28-9.6,43.29l1.26,13.58s-21.55,7.79-35.86-4.89c0,0,5.51-8.93,6.16-12.31C179,219.42,173.82,189.52,173.82,189.52Z" style="opacity:0.5"></path><path d="M197.9,199.89l2.45-1.08,2-3.4,1-3v-4.48c-1.22-.11-2.41-.2-3.55-.27a17.54,17.54,0,0,1-1-8.29L192.52,175s-.43,8.12-2.39,12.45c-1.39,0-2.69.09-3.91.17l2.09,4.12,4.71,6.11Z" style="fill:#f1d0b0"></path><path d="M195.29,180.82a17.4,17.4,0,0,0,3.4,1.55,19.1,19.1,0,0,1,.08-3l-.59-.42-5.73-3a.71.71,0,0,1,0,.14A10.63,10.63,0,0,0,195.29,180.82Z" style="opacity:0.2"></path><path d="M184.87,187.43a4.46,4.46,0,0,1,3-.36s2.4,8.29,10,12.05c0,0,6.84-5.05,3.8-11.69a2.8,2.8,0,0,1,2.85.28,11.3,11.3,0,0,1-5.79,13.4A18.13,18.13,0,0,1,184.87,187.43Z" style="fill:#263238"></path><path d="M217.83,193.4l14,15.55s11.64-10,14.46-15.88a21.7,21.7,0,0,0,2.12-7.24c.36-3.89,5.66-3.89,7.07-3.18s1.42,5.28,0,6.61-1.94,6.1-5.48,6.9c0,0-11.63,22.6-17.82,21.93s-18-15.68-18-15.68Z" style="fill:#f1d0b0"></path><path d="M212.76,189.12s6.88-.32,12.5,8a20,20,0,0,1-10.14,8.37c-.36.12-1.1-.74-1.1-.74s-.83.24-1.26.34L210.59,196Z" style="fill:#FF7F00"></path><path d="M212.76,189.12s6.88-.32,12.5,8a20,20,0,0,1-10.14,8.37c-.36.12-1.1-.74-1.1-.74s-.83.24-1.26.34L210.59,196Z" style="opacity:0.5"></path><path d="M199.25,181s-7.16-.15-10.3,2.18c0,0-3.64-3.8-8.25-1.51,0,0,3.37,3,7.21,2.49,0,0-6.16-.35-9.24,2.82,0,0,4.26,2.18,9.56-1.66l7.46,4.37,4.09-1.92a3.46,3.46,0,0,0-.28-3A5.29,5.29,0,0,0,199.25,181Z" style="fill:#FF7F00"></path><path d="M197.66,184.93s-1.93-1.27-5.64-.14C192,184.79,193.9,186.16,197.66,184.93Z" style="opacity:0.2"></path><path d="M177.85,197.32l-2.23,4.14c.38,2.87.77,6,1.09,9.16,7.42-5.8,1.72-19.2,1.72-19.2Z" style="opacity:0.30000000000000004"></path><path d="M167.66,198.81s-13,15-13.22,25.3,6.61,22.64,6.61,22.64a9.59,9.59,0,0,0,0,5.08c.81,2.17-.09,4.23,1.54,5.46s7.24.33,7.24.33.55-7.79-2.89-11.77-4.26-23.37-4.26-23.37l10.6-16.12-1.72-7.55Z" style="fill:#f1d0b0"></path><path d="M161.73,247.23a.93.93,0,1,1-.93-.93A.93.93,0,0,1,161.73,247.23Z" style="fill:#FF7F00"></path><path d="M163.59,246.75a.93.93,0,1,1-.93-.92A.93.93,0,0,1,163.59,246.75Z" style="fill:#FF7F00"></path><path d="M165.44,246.3a.93.93,0,1,1-.93-.93A.93.93,0,0,1,165.44,246.3Z" style="fill:#FF7F00"></path><path d="M167.3,245.37a.93.93,0,1,1-.93-.92A.93.93,0,0,1,167.3,245.37Z" style="fill:#FF7F00"></path><path d="M178.18,188.54s-9.07-.13-13.24,11.66c0,0,3.3,5.76,7.61,8.88,0,0,6.89-3.85,7.81-6.16C181.69,199.54,178.18,188.54,178.18,188.54Z" style="fill:#FF7F00"></path><path d="M178.18,188.54s-9.07-.13-13.24,11.66c0,0,3.3,5.76,7.61,8.88,0,0,6.89-3.85,7.81-6.16C181.69,199.54,178.18,188.54,178.18,188.54Z" style="opacity:0.5"></path><path d="M189.64,163.86c.17,7.16.1,10.18,3.58,14,5.22,5.71,14,3.91,15.93-3.14,1.76-6.36,1.17-17-5.73-20.08a9.75,9.75,0,0,0-13.78,9.25Z" style="fill:#f1d0b0"></path><path d="M200.94,166.14c0,.58.28,1.06.65,1.08s.71-.45.74-1-.28-1.06-.65-1.08S201,165.59,200.94,166.14Z" style="fill:#263238"></path><path d="M207.51,166.39c0,.59.27,1.06.65,1.08s.7-.45.73-1-.28-1.07-.65-1.07S207.53,165.81,207.51,166.39Z" style="fill:#263238"></path><path d="M208.07,165.39l1.41-.35S208.72,166.11,208.07,165.39Z" style="fill:#263238"></path><path d="M205.44,167.37a15.75,15.75,0,0,0,1.95,3.78,2.57,2.57,0,0,1-2.09.32Z" style="fill:#ed893e"></path><path d="M198.35,164.72a.32.32,0,0,0,.37-.16,4,4,0,0,1,2.79-1.62.35.35,0,0,0,.31-.38.32.32,0,0,0-.36-.3h0a4.63,4.63,0,0,0-3.32,2,.34.34,0,0,0,.13.46h0A.19.19,0,0,0,198.35,164.72Z" style="fill:#263238"></path><path d="M209.58,163.43a.39.39,0,0,0,.34-.11.36.36,0,0,0,0-.49,3.38,3.38,0,0,0-3-.83.33.33,0,0,0-.24.39v0a.33.33,0,0,0,.41.23h0a2.75,2.75,0,0,1,2.37.69A.34.34,0,0,0,209.58,163.43Z" style="fill:#263238"></path><path d="M201.49,165.19l1.41-.35S202.16,165.87,201.49,165.19Z" style="fill:#263238"></path><path d="M189.94,169.46a6.28,6.28,0,0,0,3.67-5.3,29.26,29.26,0,0,1,.95-5.7l3.8,1.22-.68-1.22,5.84.81-1.26-1.45,9.05,1.63-1.81-2.35h3.26s-12.13-16.21-22.82-3.44c0,0-15.12,7.6-4.08,19.56,0,0,3.63,2.62,2,4.71,0,0,1.61-.53,1-2.9l5.27,2.9A9.72,9.72,0,0,1,189.94,169.46Z" style="fill:#263238"></path><path d="M189.77,153.78c-1.19-1.44.07-3,1.15-4.07a.23.23,0,0,0-.33-.33c-1.39,1.35-2.29,3.32-1.2,4.69a6,6,0,0,0-5.91,2.73c-.17.25.23.48.4.24,1.56-2.21,4.24-3.35,6.75-2,.27.12.51-.26.24-.4A3.28,3.28,0,0,1,189.77,153.78Z" style="fill:#263238"></path><path d="M187.5,169.28a5.15,5.15,0,0,0,2.49,3c1.61.82,2.77-.53,2.64-2.24-.14-1.54-1.13-3.82-2.88-4a2.31,2.31,0,0,0-2.42,2.19A2.23,2.23,0,0,0,187.5,169.28Z" style="fill:#f1d0b0"></path><path d="M205.91,173a7.76,7.76,0,0,1-6-.48s.38,4.4,5.46,3.38A10.44,10.44,0,0,1,205.91,173Z" style="fill:#263238"></path><path d="M205.56,173.13l-.28,1.18s-3,.7-5.06-.59a4.52,4.52,0,0,1-.32-1.18A7.78,7.78,0,0,0,205.56,173.13Z" style="fill:#fff"></path><path d="M205,176a4.28,4.28,0,0,1-4-1.08,5.92,5.92,0,0,1,1-.08C203.46,174.82,204.73,175.32,205,176Z" style="fill:#c13b37"></path></g></svg>